<svg width="417" height="492" viewBox="0 0 417 492" fill="none" xmlns="http://www.w3.org/2000/svg">
<path d="M208.97 233.849L207.097 233.849L207.097 231.898L208.97 231.898L208.97 233.849Z" fill="#2A232B"/>
<path d="M394.141 427.647C389.858 418.383 378.157 404.654 365.157 400.861C349.087 396.17 312.813 390.499 299.362 387.347C288.58 384.817 266.864 365.3 259.253 358.749C257.887 357.578 256.77 355.159 256.743 353.361C256.471 332.154 264.925 275.817 264.925 275.817H208.034H151.144C151.144 275.817 159.598 332.152 159.323 353.361C159.301 355.159 158.178 357.578 156.816 358.749C149.206 365.3 127.489 384.817 116.707 387.347C103.255 390.499 66.98 396.363 50.9121 401.054C37.9083 404.845 26.2114 418.381 21.9282 427.645C14.6959 443.278 12.9872 471.567 12.9872 495.968H208.034H403.08C403.08 471.569 401.369 443.279 394.141 427.647Z" fill="#EBC0A9"/>
<path d="M323.415 396.961C370.893 403.875 390.874 413.959 397.131 495.972H403.08C403.08 471.571 401.369 443.281 394.141 427.649C389.858 418.385 378.157 404.656 365.157 400.863C349.087 396.172 312.813 390.501 299.362 387.349C288.58 384.819 263.782 363.789 257.148 355.432C263.702 364.615 282.097 385.894 298.213 391.468C305.923 394.134 312.344 395.348 323.415 396.961ZM117.856 391.468C133.973 385.896 152.365 364.615 158.921 355.432C152.289 363.787 127.491 384.819 116.707 387.349C103.257 390.501 66.9819 396.365 50.9121 401.056C37.9122 404.847 26.2114 418.383 21.9282 427.647C14.6998 443.279 12.9892 471.569 12.9892 495.97H18.9381C25.1562 414.483 45.2206 403.865 92.6539 396.959C103.723 395.348 110.146 394.134 117.856 391.468Z" fill="#FADDCD"/>
<path d="M199.541 423.435C199.541 423.435 189.645 420.294 185.726 418.791C165.346 410.965 99.1353 405.893 99.1353 405.893C99.1353 405.893 168.872 408.663 184.261 411.318C183.368 402.013 178.377 372.269 178.377 372.269C178.377 372.269 188.42 405.093 190.877 413.374C192.192 417.801 199.541 423.435 199.541 423.435ZM220.604 420.815C220.431 420.958 220.232 421.143 220.015 421.338C220.236 421.172 220.435 420.999 220.604 420.815ZM199.541 423.435C199.541 423.435 205.184 429.275 208.02 429.349C211.745 429.449 217.437 423.69 220.017 421.338C217.55 423.206 211.905 424.054 209.66 424.141C207.066 424.241 199.541 423.435 199.541 423.435ZM240.536 408.757C237.523 409.241 231.981 410.297 231.981 410.297L236.442 381.231C235.182 387.226 227.716 412.876 220.604 420.815C224.33 417.66 232.615 416.148 236.84 415.537C256.805 412.64 256.797 412.642 316.93 405.893C316.93 405.893 260.228 405.591 240.536 408.757Z" fill="#DCA588"/>
<path d="M394.141 427.647C389.858 418.383 378.157 404.654 365.157 400.861C349.087 396.17 312.813 390.499 299.362 387.347C288.58 384.817 266.864 365.3 259.253 358.749C257.887 357.578 256.77 355.159 256.743 353.361C256.471 332.154 264.925 275.817 264.925 275.817H208.034H151.144C151.144 275.817 159.598 332.152 159.323 353.361C159.301 355.159 158.178 357.578 156.816 358.749C149.206 365.3 127.489 384.817 116.707 387.347C103.255 390.499 66.98 396.363 50.9121 401.054C37.9083 404.845 26.2114 418.381 21.9282 427.645C14.6959 443.278 12.9872 471.567 12.9872 495.968H208.034H403.08C403.08 471.569 401.369 443.279 394.141 427.647Z" stroke="#BD764F" stroke-width="3.75"/>
<path d="M160.177 356.221C170.468 364.529 181.078 373.161 208.038 373.161C234.983 373.161 245.596 364.537 255.884 356.233C255.518 355.276 255.289 354.286 255.276 353.381C255.104 339.933 258.344 312.951 260.805 294.563C230.193 290.266 185.872 290.266 155.26 294.563C157.719 312.953 160.959 339.933 160.786 353.379C160.776 354.269 160.548 355.259 160.177 356.221Z" fill="url(#paint0_linear)"/>
<path d="M96.4086 497.881L98.989 379.093C98.989 379.093 118.872 374.239 131.435 366.77C165.56 409.624 266.897 400.605 284.227 365.56C287.131 366.585 289.534 367.896 292.539 368.904C302.292 375.513 310.509 377.676 310.509 377.676L312.333 498.09C284.468 498.457 96.4086 497.881 96.4086 497.881Z" fill="#F5F4F5"/>
<path d="M313.386 384.559C305.124 383.156 298.541 381.247 294.95 377.641C284.529 397.211 242.75 409.612 228.917 411.429C269.007 399.178 285.847 390.322 292.498 369.298C296.38 373.95 305.219 376.226 316.514 378.156L313.386 384.559ZM115.718 378.071C118.554 377.461 119.97 375.662 122.785 374.961L119.804 371.316C113.731 375.677 102.307 377.768 88.792 379.952L89.1587 387.249C96.8747 385.707 104.405 383.759 111.451 380.762C126.046 397.326 148.837 405.474 172.032 408.847C142.935 401.849 126.251 390.037 115.718 378.071Z" fill="white"/>
<path d="M281.88 369.626C270.316 391.803 182.914 417.637 133.627 371.316C130.563 372.517 121.396 375.386 121.396 375.386C157.296 420.44 262.502 420.727 290.505 375.168C290.384 375.121 284.728 370.957 281.88 369.626Z" fill="#DFDDE2"/>
<path d="M284.117 365.304C264.443 401.564 162.061 406.696 131.515 366.524C120.358 369.561 109.633 376.042 98.833 377.664L96.4086 497.881L312.331 498.09L310.663 376.308C304.092 374.928 297.983 370.965 292.614 368.706C289.645 367.459 287.125 366.337 284.117 365.304ZM130.776 367.736C157.893 412.802 265.001 403.762 285.68 367.929C288.188 368.904 288.83 369.288 291.738 370.239C270.318 411.638 164.361 424.832 121.023 372.478C121.328 372.4 127.719 368.794 130.776 367.736ZM118.872 374.239C153.908 427.034 269.565 418.855 293.6 371.726C297.055 374.442 302.436 377.561 309.079 379.017L312.317 494.346L97.0308 494.377L100.744 380.573C106.175 377.842 114.893 375.828 118.872 374.239Z" fill="#B8B6C9"/>
<path d="M4.15359 497.508C-0.866907 470.468 -0.316876 404.605 21.7331 404.744C47.3544 394.376 78.8212 382.482 105.217 374.856C118.691 360.711 131.423 347.259 156.296 333.249C157.054 338.323 159.951 349.922 156.317 356.231C153.674 360.822 145.038 367.116 137.682 372.566C133.725 377.876 130.023 383.056 124.811 390.308C134.891 433.841 143.538 456.249 144.505 494.008C144.505 494.008 141.673 495.353 270.253 494.783C274.574 451.176 279.992 429.27 290.497 389.18C290.497 389.18 282.095 379.392 276.44 371.865C272.434 367.967 260.134 357.162 259.198 354.978C256.906 349.627 258.129 342.898 259.413 332.789C280.464 342.301 292.571 356.254 310.285 374.374C325.36 378.51 370.476 393.83 393.072 404.076C400.806 403.862 405.171 407.978 408.426 414.746C418.969 436.6 416.474 468.032 412.678 498.273C375.442 498.334 110.29 502.591 4.15359 497.508Z" fill="#1D282E"/>
<path d="M157.078 338.443C157.39 340.532 157.671 342.513 157.879 344.38C157.454 344.899 124.308 389.966 124.066 390.302C132.211 371.759 143.863 352.545 157.078 338.443ZM258.849 338.443C258.539 340.532 258.49 342.513 258.281 344.38C258.707 344.899 291.305 388.241 291.545 388.579C282.914 371.303 272.063 352.545 258.849 338.443ZM334.829 399.1C326.481 411.264 324.699 415.462 315.561 427.516C317.65 427.516 321.02 427.841 323.109 427.841C330.255 415.572 330.269 409.327 334.829 399.1ZM343.384 487.383C350.782 470.009 356.909 454.762 364.33 437.363L361.898 433.431C355.717 451.302 349.157 469.463 343.384 487.383ZM93.0499 427.841C95.1388 427.841 98.5092 427.516 100.6 427.516C91.4622 415.462 89.6795 414.709 81.3334 402.546C85.8897 412.773 85.9034 415.572 93.0499 427.841ZM54.261 433.431L51.8288 437.363C59.2522 454.762 61.1227 470.009 68.5228 487.383C62.7475 469.463 60.442 451.302 54.261 433.431Z" fill="#101A1F"/>
<path d="M141.012 368.119C143.315 364.906 151.226 353.923 157.788 343.599C159.715 354.251 156.177 360.57 141.012 368.119ZM258.239 342.892C263.218 351.474 269.087 360.016 275.137 367.885C258.746 360.414 257.644 352.776 258.239 342.892Z" fill="#070C0F"/>
<path d="M259.366 333.13C259.382 333.011 259.399 332.9 259.411 332.79C294.701 352.309 315.147 381.631 338.886 403.489C338.013 404.896 336.491 405.818 335.596 407.207C310.737 388.276 298.923 359.653 259.366 333.13ZM152.906 334.424C123.582 350.457 82.217 399.54 78.1679 403.272C79.0417 404.685 79.5156 404.398 80.4109 405.786C105.271 386.857 112.057 368.119 152.906 334.424ZM393.072 404.078C391.122 402.519 345.001 384.481 310.002 374.858C375.729 406.674 398.918 411.059 410.394 422.334C409.647 420.384 408.124 403.659 393.072 404.078ZM105.552 374.506C79.1743 382.147 45.402 394.218 21.7312 404.746C11.2689 404.953 3.77131 420.226 2.16608 436.143C16.7204 403.323 9.52908 425.387 105.552 374.506Z" fill="#2D373D"/>
<path d="M415.953 447.722C415.29 430.866 409.994 402.624 393.15 403.879C391.758 402.688 352.538 384.813 310.675 373.405C296.333 358.852 278.463 339.052 259.239 332.495C257.852 345.043 256.358 353.23 259.66 357.314C264.031 362.075 269.276 366.838 274.422 370.046C283.425 382.023 290.296 389.133 290.296 389.133C279.705 429.547 273.103 450.26 268.894 493.936H147.175C142.968 450.262 136.364 429.549 125.773 389.133C125.773 389.133 132.642 382.022 141.648 370.046C146.795 366.836 152.038 362.075 156.409 357.314C159.709 353.23 158.217 345.043 156.83 332.495C137.606 339.052 119.734 358.852 105.394 373.405C63.5316 384.815 24.3116 402.688 22.919 403.879C6.07285 402.624 0.777344 430.866 0.116137 447.722C-0.685504 468.194 2.91505 496.403 3.20762 498.355H412.862C413.154 496.401 416.755 468.194 415.953 447.722ZM155.34 356.233C150.936 360.592 148.205 362.442 142.715 366.544C152.133 354.302 151.182 355.938 157.749 344.624C158.043 349.488 156.216 355.368 155.34 356.233ZM6.80038 494.506C4.68997 469.433 1.11282 446.856 7.63908 422.295C10.1376 412.872 12.484 406.493 22.1798 405.685C24.2609 416.495 38.041 461.756 50.0675 492.616C37.9239 445.392 39.7086 455.898 34.0367 437.076C32.1564 430.761 30.4205 424.415 28.2262 418.195C26.699 413.873 25.008 409.632 23.8143 405.208L102.677 376.191C102.133 376.743 77.5261 402.415 76.9332 403.137C80.5357 409.034 92.178 417.235 98.086 426.09C73.83 428.381 61.9868 432.284 53.2253 433.586C53.8709 435.379 70.8985 483.076 72.6831 487.572C69.7984 472.117 63.2897 447.951 55.837 434.454C58.5871 434.105 91.0955 429.59 101.464 427.667C98.5853 422.096 85.7766 411.197 78.9188 403.034C119.188 367.58 128.503 349.543 156.143 333.825C156.436 336.771 157.008 339.703 157.216 342.646C126.409 388.584 122.793 388.651 122.793 388.651C131.735 423.417 143.335 458.582 143.335 494.205L6.80038 494.506ZM260.727 356.233C259.854 355.368 258.024 349.488 258.319 344.624C264.886 355.94 263.934 354.302 273.353 366.544C267.862 362.442 265.13 360.594 260.727 356.233ZM409.267 494.506L272.734 494.205C272.734 458.582 284.334 423.415 293.277 388.651C293.277 388.651 289.661 388.584 258.853 342.646C259.06 339.703 259.631 336.771 259.926 333.825C287.566 349.543 296.879 367.58 337.15 403.034C330.293 411.199 317.484 422.098 314.605 427.667C324.972 429.588 357.48 434.105 360.232 434.454C352.781 447.951 346.273 472.117 343.386 487.572C345.171 483.074 362.198 435.379 362.844 433.586C354.082 432.284 342.239 428.381 317.983 426.09C323.889 417.235 335.533 409.036 339.136 403.137C338.541 402.415 313.936 376.743 313.392 376.191C313.394 376.191 392.255 405.208 392.255 405.208C391.063 409.634 389.37 413.873 387.843 418.195C385.649 424.415 383.913 430.761 382.033 437.076C376.361 455.9 378.145 445.392 366.002 492.616C378.028 461.754 391.806 416.495 393.889 405.685C403.585 406.493 405.932 412.872 408.43 422.295C414.954 446.856 411.377 469.435 409.267 494.506Z" fill="black"/>
<path d="M109.607 200.337C104.747 197.592 93.718 184.537 88.9689 186.397C85.9023 187.595 84.5645 196.604 84.0809 200.25C83.4639 204.932 82.3595 214.549 83.4731 219.137C84.8165 224.673 90.2012 234.913 93.4234 239.587C96.1435 243.522 103.079 250.337 105.295 254.586C106.702 257.282 108.062 264.55 112.861 264.08C115.963 263.776 123.12 258.384 123.504 255.824C125.594 241.958 119.177 205.743 109.607 200.337Z" fill="#EBC0A9" stroke="#BD764F" stroke-width="3.5625"/>
<path d="M103.187 230.281C102.955 229.25 103.198 227.516 103.433 225.839C103.646 224.311 103.848 222.87 103.726 221.85C103.261 218.03 100.65 210.77 98.9489 206.835C96.9866 202.31 93.8144 196.607 89.8343 195.139C88.1888 194.527 87.1049 195.256 86.4749 195.994C86.0153 196.535 85.9097 197.173 86.0617 197.247C86.2136 197.323 86.5546 196.795 87.053 196.298C87.4588 195.892 88.0573 195.543 88.8744 195.615C88.5446 197.518 86.8529 207.821 87.5848 214.844C88.1611 220.367 90.3438 224.491 90.6848 225.111C90.7366 225.763 90.82 226.399 90.9423 227.017C92.5525 235.078 99.5548 244.245 101.991 247.246C102.442 247.798 102.91 248.128 103.029 247.995C103.144 247.858 102.868 247.312 102.418 246.756C100.012 243.772 93.0751 234.641 91.5241 226.861C89.875 218.609 95.5395 206.373 96.8032 203.786C97.448 205.001 97.9946 206.169 98.4152 207.141C98.7469 207.905 99.1156 208.799 99.4918 209.763C98.7469 211.115 93.542 220.968 95.4394 228.855C96.1435 231.763 99.3083 235.51 101.411 236.538C102.568 237.105 103.003 237.949 103.505 238.926C104.087 240.063 104.752 241.35 106.67 242.283C107.061 242.47 107.415 242.55 107.728 242.55C108.271 242.55 108.682 242.316 108.986 242.029C109.018 242.526 109.016 243.162 108.999 243.75C108.981 244.512 109.075 245.135 109.238 245.152C109.401 245.167 109.575 244.562 109.594 243.806C109.624 242.873 109.618 241.719 109.47 241.168C109.04 239.542 107.724 237.706 106.331 235.763C104.96 233.851 103.54 231.872 103.187 230.281ZM90.6329 223.132C86.8621 210.475 90.6329 198.851 91.4815 197.116C92.9546 198.571 95.3875 201.219 96.4456 203.122C95.6729 204.648 90.7904 214.62 90.6329 223.132ZM106.902 241.651C105.164 240.805 104.58 239.672 104.017 238.578C103.507 237.586 102.979 236.562 101.643 235.907C101.352 235.765 101.032 235.549 100.707 235.299C96.4011 224.195 101.178 219.34 102.373 218.346C102.742 219.701 103.014 220.947 103.135 221.945C103.248 222.863 103.042 224.319 102.846 225.73C102.601 227.477 102.349 229.283 102.61 230.451C103.001 232.195 104.461 234.231 105.871 236.2C107.126 237.949 108.416 239.752 108.853 241.222C108.668 241.515 108.071 242.214 106.902 241.651Z" fill="#BD764F"/>
<path d="M305.951 200.337C310.811 197.592 321.838 184.537 326.587 186.397C329.656 187.595 330.996 196.604 331.477 200.25C332.096 204.932 333.197 214.549 332.085 219.137C330.742 224.673 325.357 234.913 322.133 239.587C319.415 243.522 312.477 250.337 310.263 254.586C308.855 257.282 307.498 264.55 302.696 264.08C299.594 263.776 292.44 258.384 292.052 255.824C289.962 241.958 296.379 205.743 305.951 200.337Z" fill="#EBC0A9" stroke="#BD764F" stroke-width="3.5625"/>
<path d="M309.227 235.763C307.834 237.704 306.516 239.542 306.086 241.168C305.942 241.719 305.934 242.873 305.964 243.806C305.986 244.56 306.159 245.165 306.322 245.152C306.485 245.135 306.579 244.512 306.561 243.75C306.542 243.164 306.542 242.526 306.572 242.029C306.876 242.316 307.289 242.55 307.832 242.55C308.143 242.55 308.497 242.47 308.888 242.283C310.806 241.35 311.473 240.065 312.055 238.926C312.557 237.949 312.992 237.105 314.15 236.538C316.25 235.51 319.416 231.763 320.122 228.855C322.018 220.968 316.815 211.115 316.068 209.763C316.444 208.799 316.813 207.905 317.147 207.141C317.564 206.169 318.112 205.001 318.757 203.786C320.021 206.373 325.683 218.609 324.034 226.861C322.481 234.641 315.544 243.77 313.141 246.756C312.692 247.312 312.412 247.858 312.529 247.995C312.648 248.126 313.118 247.798 313.569 247.246C316.003 244.245 323.007 235.078 324.618 227.017C324.74 226.399 324.823 225.762 324.875 225.111C325.216 224.491 327.401 220.367 327.977 214.844C328.709 207.82 327.017 197.518 326.689 195.615C327.506 195.543 328.105 195.892 328.509 196.298C329.005 196.795 329.348 197.321 329.5 197.247C329.648 197.171 329.543 196.535 329.087 195.994C328.453 195.257 327.371 194.527 325.728 195.139C321.747 196.607 318.573 202.31 316.611 206.835C314.906 210.772 312.301 218.03 311.834 221.85C311.712 222.87 311.914 224.313 312.127 225.839C312.362 227.516 312.601 229.25 312.373 230.281C312.016 231.872 310.598 233.851 309.227 235.763ZM319.113 203.122C320.169 201.219 322.602 198.569 324.075 197.116C324.922 198.851 328.696 210.475 324.925 223.132C324.766 214.62 319.883 204.648 319.113 203.122ZM306.703 241.222C307.141 239.752 308.43 237.949 309.685 236.2C311.097 234.229 312.555 232.195 312.946 230.451C313.207 229.281 312.957 227.477 312.711 225.73C312.516 224.321 312.309 222.863 312.422 221.945C312.544 220.945 312.816 219.701 313.185 218.346C314.38 219.34 319.157 224.195 314.849 235.299C314.523 235.548 314.204 235.763 313.915 235.907C312.575 236.562 312.047 237.586 311.541 238.578C310.976 239.672 310.395 240.805 308.653 241.651C307.485 242.214 306.889 241.515 306.703 241.222Z" fill="#BD764F"/>
<path d="M208.038 39.3901C145.091 39.4935 93.9691 93.3912 94.0665 159.795C94.0815 170.34 95.3847 180.567 97.8151 190.308L97.817 190.308C97.8395 190.413 119.429 265.625 124.069 290.331C126.656 304.11 141.039 320.887 155.022 331.022C168.067 340.478 176.111 353.611 208.037 353.611C239.962 353.611 248.006 340.478 261.051 331.022C275.034 320.889 289.417 304.11 292.004 290.331C296.646 265.627 318.236 190.413 318.256 190.308L318.26 190.308C320.69 180.565 321.994 170.34 322.009 159.795C322.11 93.3912 270.986 39.4935 208.038 39.3901Z" fill="#EBC0A9"/>
<path d="M295.612 82.774C309.614 102.974 317.926 128.141 317.89 155.429C317.873 165.974 316.619 176.201 314.276 185.942L314.272 185.942C314.252 186.047 293.443 261.259 288.972 285.966C286.472 299.744 272.612 316.521 259.135 326.656C246.555 336.112 238.811 349.247 208.034 349.247C177.262 349.247 169.508 336.112 156.933 326.656C143.457 316.523 129.591 299.744 127.103 285.966C122.626 261.261 101.817 186.049 101.797 185.942C99.4525 176.199 98.1979 165.974 98.1811 155.429C98.1418 128.149 106.45 102.991 120.443 82.7935C103.943 103.671 94.0186 130.512 94.0617 159.793C94.0767 170.338 95.3799 180.565 97.8103 190.306L97.8122 190.306C97.8347 190.411 119.424 265.623 124.064 290.329C126.652 304.108 141.034 320.885 155.017 331.02C168.063 340.476 176.107 353.609 208.032 353.609C239.957 353.609 248.001 340.476 261.046 331.02C275.03 320.887 289.412 304.108 292 290.329C296.642 265.625 318.231 190.411 318.251 190.306L318.255 190.306C320.686 180.563 321.989 170.338 322.004 159.793C322.054 130.504 312.121 103.655 295.612 82.774Z" fill="#E3B298"/>
<path d="M208.038 39.3901C145.091 39.4935 93.9691 93.3912 94.0665 159.795C94.0815 170.34 95.3847 180.567 97.8151 190.308L97.817 190.308C97.8395 190.413 119.429 265.625 124.069 290.331C126.656 304.11 141.039 320.887 155.022 331.022C168.067 340.478 176.111 353.611 208.037 353.611C239.962 353.611 248.006 340.478 261.051 331.022C275.034 320.889 289.417 304.11 292.004 290.331C296.646 265.627 318.236 190.413 318.256 190.308L318.26 190.308C320.69 180.565 321.994 170.34 322.009 159.795C322.11 93.3912 270.986 39.4935 208.038 39.3901Z" stroke="#BD764F" stroke-width="3.67387"/>
<path d="M208.394 317.326C202.595 317.621 200.932 311.683 200.932 311.683C200.932 311.683 208.982 312.841 215.249 310.96C215.251 310.962 213.498 317.07 208.394 317.326Z" fill="url(#paint1_linear)"/>
<path d="M208.984 312.843C204.921 313.048 201.274 312.686 201.044 312.661C200.762 312.632 200.557 312.382 200.586 312.104C200.616 311.821 200.878 311.626 201.147 311.644C201.231 311.651 209.535 312.474 214.946 310.954C215.214 310.888 215.501 311.038 215.579 311.31C215.657 311.583 215.497 311.864 215.225 311.942C213.312 312.479 211.092 312.737 208.984 312.843Z" fill="#BD764F"/>
<path d="M172.145 291.402C172.145 291.402 197.81 294.448 206.383 294.474C215.708 294.499 245.873 291.402 245.873 291.402C237.152 298.645 227.557 305.61 205.824 305.747C186.385 305.872 181.404 298.807 172.145 291.402Z" fill="white"/>
<path d="M172.145 291.402C172.145 291.402 197.81 294.448 206.383 294.474C215.708 294.499 245.873 291.402 245.873 291.402C237.152 298.645 227.557 305.61 205.824 305.747C186.385 305.872 181.404 298.807 172.145 291.402Z" stroke="#BD764F" stroke-width="1.96875"/>
<path d="M174.101 211.154C167.999 209.7 164.894 213.118 155.926 213.316C140.996 213.645 137.511 212.17 135.175 208.424C134.205 206.872 133.279 204.849 132.832 203.601L132.647 195.907C135.108 188.583 168.855 187.836 180.638 199.215C181.17 200.45 181.441 201.602 181.5 202.677C181.148 204.454 180.551 206.16 179.745 207.775C178.437 209.277 176.48 210.42 174.101 211.154Z" fill="url(#paint2_radial)"/>
<path d="M168.481 205.059C166.871 210.978 160.769 214.466 154.842 212.84C148.918 211.215 145.421 205.092 147.033 199.171C148.644 193.246 154.756 189.757 160.68 191.386C166.599 193.008 170.095 199.132 168.481 205.059Z" fill="#3E4442" stroke="#0E1613" stroke-width="1.1875"/>
<path d="M166.752 205.196C165.179 209.743 160.439 212.393 155.822 211.128C151.56 209.958 148.87 205.865 149.22 201.539C150.8 201.415 152.531 201.377 154.327 201.465C154.308 201.526 154.276 201.58 154.26 201.643C153.693 203.729 155.014 205.917 157.21 206.52C159.413 207.124 161.659 205.915 162.226 203.829C162.298 203.556 162.337 203.284 162.346 203.015C163.852 203.564 165.331 204.274 166.752 205.196Z" fill="#535353"/>
<path opacity="0.9" d="M159.263 198.794C157.034 198.156 154.762 199.428 154.188 201.65C153.611 203.859 154.951 206.171 157.178 206.811C159.409 207.451 161.681 206.177 162.257 203.966C162.837 201.745 161.492 199.434 159.263 198.794ZM159.748 206.642C158.822 206.932 157.864 206.548 157.61 205.786C157.363 205.023 157.912 204.178 158.846 203.896C159.778 203.607 160.734 203.99 160.99 204.747C161.242 205.509 160.688 206.355 159.748 206.642Z" fill="black"/>
<path opacity="0.6" d="M151.847 207.972C151.162 208.384 150.139 208.015 149.553 207.143C148.968 206.279 149.055 205.244 149.742 204.83C150.424 204.424 151.456 204.792 152.038 205.658C152.616 206.524 152.533 207.562 151.847 207.972Z" fill="white"/>
<path opacity="0.8" d="M166.484 201.631C164.916 202.572 162.561 201.726 161.227 199.74C159.893 197.752 160.093 195.378 161.66 194.442C163.224 193.498 165.585 194.343 166.912 196.331C168.244 198.319 168.051 200.689 166.484 201.631Z" fill="white"/>
<path d="M119.732 201.832C119.024 207.959 137.991 242.637 156.922 242.637C175.854 242.637 193.055 232.824 193.055 201.834C193.055 168.844 175.854 161.033 156.922 161.033C137.991 161.033 123.247 171.43 119.732 201.832ZM132.834 203.603L132.649 195.909C135.11 188.585 168.857 187.838 180.64 199.217C183.227 205.209 179.882 209.374 174.101 211.156C167.999 209.702 164.894 213.12 155.926 213.318C140.996 213.647 137.511 212.172 135.175 208.426C134.205 206.872 133.279 204.851 132.834 203.603Z" fill="#EBC0A9"/>
<path d="M130.792 198.705C130.835 212.677 144.96 223.933 162.363 223.863C179.76 223.783 193.835 212.404 193.79 198.433C193.748 184.463 179.621 173.202 162.216 173.275C144.814 173.356 130.746 184.734 130.792 198.705ZM132.834 203.603L132.649 195.909C135.11 188.585 168.857 187.838 180.64 199.217C183.227 205.209 179.882 209.374 174.101 211.156C167.999 209.702 164.894 213.12 155.926 213.318C140.996 213.647 137.511 212.172 135.175 208.426C134.205 206.872 133.279 204.851 132.834 203.603Z" fill="url(#paint3_radial)"/>
<path d="M135.175 208.426C134.205 206.874 133.279 204.851 132.832 203.603L132.647 195.909C135.108 188.585 168.855 187.838 180.638 199.217C183.225 205.209 179.88 209.374 174.099 211.156C167.998 209.702 164.892 213.12 155.924 213.318C140.998 213.647 137.511 212.17 135.175 208.426Z" fill="url(#paint4_radial)"/>
<path d="M185.949 196.445C168.129 185.761 155.003 185.08 133.85 186.442C151.506 183.658 171.842 185.677 185.949 196.445Z" fill="#BD764F"/>
<path d="M183.66 204.029C177.657 188.609 135.59 188.519 132.832 196.276L132.832 203.499C130.941 200.645 130.892 200.471 130.084 197.186L126.017 198.57C126.017 198.57 131.105 191.387 135.836 190.445C176.945 182.25 183.308 201.555 183.66 204.029ZM177.199 211.701C168.629 208.029 166.193 212.402 155.774 212.619C140.943 212.931 138.047 211.199 135.16 208.028C136.666 211.905 137.707 213.749 155.31 213.641C165.272 213.58 170.714 209.461 177.199 211.701Z" fill="#582311"/>
<path d="M241.187 211.154C247.289 209.7 250.395 213.118 259.363 213.316C274.292 213.645 277.777 212.17 280.114 208.424C281.083 206.872 282.009 204.849 282.456 203.601L282.641 195.907C280.181 188.583 246.433 187.836 234.65 199.215C234.118 200.45 233.848 201.602 233.789 202.677C234.141 204.454 234.737 206.16 235.543 207.775C236.851 209.277 238.808 210.42 241.187 211.154Z" fill="url(#paint5_radial)"/>
<path d="M268.998 205.059C267.388 210.978 261.286 214.466 255.357 212.84C249.435 211.215 245.936 205.092 247.548 199.171C249.159 193.246 255.273 189.757 261.195 191.386C267.116 193.008 270.61 199.132 268.998 205.059Z" fill="#3E4442" stroke="#0E1613" stroke-width="1.1875"/>
<path d="M267.269 205.196C265.696 209.743 260.954 212.393 256.339 211.128C252.077 209.958 249.385 205.865 249.737 201.539C251.319 201.415 253.048 201.377 254.843 201.465C254.825 201.526 254.793 201.58 254.777 201.643C254.21 203.729 255.531 205.917 257.729 206.52C259.932 207.124 262.177 205.915 262.744 203.829C262.815 203.556 262.856 203.284 262.865 203.015C264.369 203.564 265.85 204.274 267.269 205.196Z" fill="#535353"/>
<path opacity="0.9" d="M259.78 198.794C257.553 198.156 255.279 199.428 254.706 201.65C254.128 203.859 255.47 206.171 257.695 206.811C259.926 207.451 262.2 206.177 262.776 203.966C263.352 201.745 262.009 199.434 259.78 198.794ZM260.265 206.642C259.339 206.932 258.379 206.548 258.127 205.786C257.88 205.023 258.429 204.178 259.363 203.896C260.295 203.607 261.251 203.99 261.507 204.747C261.759 205.509 261.205 206.355 260.265 206.642Z" fill="black"/>
<path opacity="0.6" d="M252.366 207.972C251.681 208.384 250.656 208.015 250.072 207.143C249.487 206.279 249.572 205.244 250.261 204.83C250.941 204.424 251.977 204.792 252.557 205.658C253.135 206.524 253.05 207.562 252.366 207.972Z" fill="white"/>
<path opacity="0.8" d="M267.001 201.631C265.433 202.572 263.08 201.726 261.744 199.74C260.41 197.752 260.61 195.378 262.177 194.442C263.743 193.498 266.1 194.343 267.429 196.331C268.761 198.319 268.57 200.689 267.001 201.631Z" fill="white"/>
<path d="M258.368 161.033C239.437 161.033 222.236 168.844 222.236 201.834C222.236 232.824 239.437 242.637 258.368 242.637C277.3 242.637 295.225 209.198 295.557 201.832C296.939 171.257 277.3 161.033 258.368 161.033ZM280.115 208.426C277.778 212.172 274.291 213.647 259.363 213.318C250.395 213.12 247.29 209.702 241.188 211.156C235.407 209.374 232.062 205.209 234.649 199.217C246.432 187.838 280.179 188.585 282.64 195.909L282.455 203.603C282.012 204.851 281.085 206.872 280.115 208.426Z" fill="#EBC0A9"/>
<path d="M253.072 173.275C235.667 173.201 221.542 184.463 221.5 198.433C221.454 212.406 235.53 223.783 252.928 223.863C270.329 223.931 284.453 212.675 284.496 198.705C284.544 184.734 270.477 173.356 253.072 173.275ZM280.114 208.426C277.777 212.172 274.29 213.647 259.363 213.318C250.395 213.12 247.289 209.702 241.187 211.156C235.406 209.374 232.062 205.209 234.648 199.217C246.431 187.838 280.179 188.585 282.639 195.909L282.454 203.603C282.011 204.851 281.085 206.872 280.114 208.426Z" fill="url(#paint6_radial)"/>
<path d="M280.114 208.426C281.083 206.874 282.009 204.851 282.456 203.603L282.641 195.909C280.181 188.585 246.433 187.838 234.65 199.217C232.063 205.209 235.408 209.374 241.189 211.156C247.291 209.702 250.396 213.12 259.365 213.318C274.292 213.647 277.777 212.17 280.114 208.426Z" fill="url(#paint7_radial)"/>
<path d="M229.341 196.445C247.161 185.761 260.287 185.08 281.441 186.442C263.784 183.658 243.448 185.677 229.341 196.445Z" fill="#BD764F"/>
<path d="M279.454 190.443C284.185 191.386 289.273 198.568 289.273 198.568L285.206 197.184C284.396 200.469 284.348 200.643 282.458 203.497L282.458 196.274C279.703 188.517 237.635 188.608 231.63 204.027C231.982 201.555 238.343 182.25 279.454 190.443ZM259.978 213.643C277.581 213.75 278.624 211.905 280.129 208.029C277.242 211.201 274.346 212.933 259.515 212.621C249.098 212.404 246.659 208.029 238.089 211.703C244.575 209.461 250.018 213.58 259.978 213.643Z" fill="#582311"/>
<path d="M288.003 260.152C288.071 304.311 252.325 340.175 208.155 340.235C163.992 340.308 128.131 304.565 128.063 260.396C127.994 216.24 163.741 180.236 207.909 180.166C252.073 180.097 287.938 215.986 288.003 260.152Z" fill="url(#paint8_radial)"/>
<path d="M281.176 143.076C281.176 183.506 248.43 216.279 208.036 216.279C167.64 216.279 134.891 183.506 134.891 143.076C134.891 102.647 167.64 69.8734 208.036 69.8734C248.43 69.8734 281.176 102.647 281.176 143.076Z" fill="url(#paint9_radial)"/>
<path d="M113.288 193.551C127.143 159.407 188.679 190.004 189.34 176.66C189.458 173.987 187.754 172.759 185.245 172.239C155.74 166.347 117.703 163.904 113.288 193.551Z" fill="#2A232B"/>
<path d="M302.78 193.551C288.924 159.407 227.388 190.004 226.727 176.66C226.609 173.987 228.313 172.759 230.823 172.239C260.328 166.347 298.365 163.904 302.78 193.551Z" fill="#2A232B"/>
<path d="M190.704 257.272C188.991 261.301 202.278 265.651 207.32 265.918C212.781 266.205 228.084 260.257 225.49 256.173C222.762 251.889 212.533 255.615 208.119 255.615C203.727 255.613 192.998 251.896 190.704 257.272Z" fill="#DCA588"/>
<path d="M211.656 260.316C211.207 258.834 215.315 257.224 216.838 257.009C218.985 256.697 223.392 258.574 222.998 260.117C222.639 261.479 218.808 259.076 217.419 259.279C215.988 259.488 212.081 261.704 211.656 260.316ZM198.231 259.833C200.119 259.833 202.92 261.05 203.434 259.978C204.049 258.699 199.262 257.126 197.856 257.3C196.694 257.436 192.526 259.867 193.099 260.89C193.633 261.829 195.742 259.833 198.231 259.833Z" fill="#BD764F"/>
<path opacity="0.2" d="M208.207 250.44C209.391 250.44 211.605 248.996 211.702 246.087C212.095 234.359 209.838 199.563 208.207 199.686C206.686 199.801 203.786 234.115 204.408 246.087C204.562 249.019 206.871 250.44 208.207 250.44Z" fill="#FFF2EA"/>
<path d="M105.068 222.887C100.531 205.682 98.0878 190.619 94.6949 174.904L94.8503 174.867C93.5658 171.571 88.9296 145.475 88.8866 145.194C84.1586 110.513 98.2357 108.534 97.9492 94.0639C103.875 97.1573 109.637 95.6232 114.837 91.3998C109.373 88.4742 111.098 88.0117 103.842 83.4077C108.955 82.4865 111.942 83.7297 116.286 84.2937C112.573 80.4235 105.285 72.529 100.55 73.5751L100.241 72.8842C107.096 67.3082 116.247 78.9168 124.497 75.7727C124.746 43.8178 169.561 37.1821 180.468 32.4336C194.989 26.6742 210.157 14.0078 220.825 12.8758C214.786 19.2012 211.088 29.3656 210.813 36.9947C219.609 28.2395 220.231 28.4952 233.565 13.0593C233.565 25.4798 230.264 27.0392 225.979 34.3287C237.609 26.3854 252.109 4.09913 274.44 0.691498L274.685 1.41362C266.638 6.35528 260.41 14.6929 256.152 26.2156C260.378 20.8953 266.359 15.1242 272.978 14.08L273.227 14.8002C269.079 17.3862 260.955 26.0068 259.096 40.4414C267.299 30.8918 280.348 22.9777 289.306 19.9878L289.656 20.6631C281.432 27.6364 278.135 39.8442 276.275 50.2232C282.042 41.2845 285.398 39.247 292.653 35.4919C290.319 39.1318 290.47 38.4956 288.613 42.4516C293.099 54.4018 307.923 54.8663 310.457 75.7454C313.509 72.9662 314.72 72.2694 318.229 69.7108L318.757 70.2416C316.121 74.51 313.947 82.0688 312.5 87.1276C317.705 82.9841 325.743 79.9317 331.404 77.8024L331.799 78.4426C327.022 83.5033 321.223 91.2183 320.261 99.5871C322.133 98.4317 322.223 98.5644 324.661 96.7259C324.661 102.739 324.858 101.972 324.899 104.738C327.252 102.542 327.614 102.236 329.161 100.481C328.818 163.641 325.706 151.053 317.332 195.071C315.864 202.806 313.267 216.311 311.601 222.799L300.274 224.827C303.776 181.121 300.1 190.649 302.647 163.146C306.414 122.592 274.927 89.3486 233.319 100.229C224.901 102.431 191.302 102.429 182.887 100.229C136.924 88.201 120.364 116.194 115.43 165.177C113.013 189.218 112.421 181.105 115.93 224.827L105.068 222.887Z" fill="#2A232B"/>
<path d="M324.897 104.74C324.858 101.972 324.659 102.741 324.659 96.7279C322.221 98.5644 322.131 98.4337 320.259 99.5891C321.221 91.2202 327.02 83.5052 331.797 78.4445L331.402 77.8044C325.743 79.9356 317.705 82.9861 312.498 87.1295C313.943 82.0708 316.119 74.5119 318.755 70.2436L318.227 69.7127C314.718 72.2714 313.507 72.9681 310.455 75.7473C307.921 54.8702 293.097 54.4037 288.611 42.4536C290.468 38.4975 290.317 39.1338 292.652 35.4939C285.396 39.2489 282.04 41.2865 276.273 50.2252C278.133 39.8461 281.432 27.6384 289.654 20.665L289.304 19.9897C280.346 22.9797 267.297 30.8938 259.094 40.4433C260.953 26.0087 269.078 17.3881 273.225 14.8022L272.976 14.082C266.357 15.1261 260.376 20.8992 256.15 26.2175C260.408 14.6948 266.638 6.35723 274.684 1.41557L274.438 0.693451C252.108 4.10109 237.607 26.3873 225.978 34.3307C230.262 27.0412 233.563 25.4798 233.563 13.0613C220.229 28.4971 219.608 28.2414 210.811 36.9967C211.084 29.3676 214.784 19.2012 220.823 12.8778C210.157 14.0098 194.989 26.6742 180.466 32.4356C169.561 37.1821 124.746 43.8178 124.497 75.7746C116.247 78.9188 107.096 67.3102 100.241 72.8861L100.55 73.577C105.285 72.529 112.573 80.4235 116.286 84.2957C111.944 83.7316 108.955 82.4884 103.842 83.4096C111.098 88.0136 109.373 88.4762 114.837 91.4017C109.637 95.6252 103.876 97.1592 97.9492 94.0658C98.2357 108.538 84.1568 110.517 88.8866 145.196C88.9296 145.477 93.5658 171.573 94.8503 174.869L94.6949 174.906C98.0878 190.621 100.531 205.686 105.068 222.889L105.117 222.894C103.879 190.805 84.4826 145.186 95.8652 115.966C97.35 112.15 103.095 102.087 103.095 102.087C103.095 102.087 121.121 99.6203 121.969 92.3288C121.969 92.3288 118.224 90.3771 116.352 88.4254C120.096 90.3771 120.096 84.5221 123.841 86.4738C123.841 82.5704 118.224 84.5221 118.224 80.6187C121.969 80.6187 125.714 80.6187 129.459 84.5221C127.586 74.7637 129.459 65.0053 136.948 59.1502C155.673 43.5368 180.015 45.4884 198.739 29.875C196.867 39.6334 194.994 49.3918 194.994 59.1502C206.229 53.2952 209.974 41.5851 219.336 33.7784C221.208 41.5851 217.464 51.3435 217.464 59.1502C223.081 45.4884 230.571 31.8267 247.423 27.9233C239.933 35.73 239.933 47.4401 239.933 57.1985C239.933 49.3918 247.423 45.4884 249.295 39.6334C249.295 47.4401 249.295 55.2469 249.295 63.0536C253.04 51.3435 260.53 45.4884 269.892 41.5851C262.402 49.3918 264.275 57.1985 262.402 66.9569C268.02 61.1019 275.509 59.1502 281.127 53.2952C286.744 65.0053 282.999 74.7637 282.999 86.4738C284.872 76.7153 294.234 70.8603 299.851 63.0536C301.724 72.812 301.724 82.5704 299.851 92.3288C301.724 86.4738 305.469 82.5704 307.341 76.7153C307.341 86.2005 306.09 94.4015 303.634 102.364C305.983 99.5305 309.82 98.2443 311.086 94.2805C311.086 102.722 311.086 109.707 311.086 117.753C312.172 115.427 315.374 114.615 316.703 111.846C315.104 118.507 316.228 123.757 316.593 130C317.287 126.175 320.821 123.829 322.098 120.306C322.173 118.788 322.249 117.267 322.319 115.749C322.747 117.529 322.571 118.997 322.098 120.306C320.39 154.989 317.242 189.622 310.384 223.019L311.597 222.803C313.263 216.315 315.859 202.81 317.329 195.075C325.704 151.057 328.816 163.645 329.157 100.485C327.612 102.239 327.251 102.546 324.897 104.74Z" fill="#3A353A"/>
<path d="M335.014 76.1195C325.747 77.7472 319.274 80.8777 314.323 84.4142C315.044 82.4527 318.43 71.3964 322.075 66.7514C316.477 69.353 313.237 72.1439 311.365 73.6018C311.365 71.5877 310.62 69.2613 310.26 68.0591C309.906 67.0539 309.608 65.879 307.88 62.9457C298.198 48.7062 297.593 54.6627 289.663 43.7606C291.109 40.2261 293.2 36.7892 295.824 33.9437C288.506 35.0269 284.654 37.9934 280.02 42.7458C279.945 42.8238 279.889 42.9019 279.833 42.98C282.737 31.024 288.427 20.6586 299.606 16.7689C285.78 16.2458 268.664 26.902 260.06 37.5348C263.775 25.0811 268.759 19.148 276.165 13.6267C270.836 12.805 265.613 15.0748 261.483 18.662C266.241 10.0805 273.311 3.24568 278.992 0.0624839C278.185 0.0429671 277.232 -0.0155834 276.183 0.0624839C274.729 -0.325901 265.924 1.16713 262.777 2.58015C247.181 8.92702 235.834 23.7012 230.964 28.4985C234.552 22.4522 234.728 18.1585 234.072 11.8702C232.846 12.969 212.324 33.446 212.071 33.7095C213.526 25.2997 216.275 20.1707 221.471 12.6508C212.208 10.8436 189.017 26.7361 174.641 30.9771C159.579 35.2298 122.205 44.0983 123.916 75.2803C115.874 76.8787 104.098 63.4199 97.9267 74.7143C102.881 71.6502 109.444 79.0275 114.011 83.2431C112.139 82.925 105.879 81.393 102.851 83.4969C106.398 84.9314 109.498 89.2192 113.88 91.4988C113.936 91.5183 113.992 91.5378 114.048 91.5768C110.043 93.7783 105.31 95.5465 100.96 94.2897C100.305 94.0945 99.8741 93.9774 99.8741 93.9579C99.3685 93.7237 98.8255 93.4895 98.245 93.2162L98.2263 93.2162L98.2076 93.1967C97.9642 93.0601 97.7208 92.9235 97.4586 92.7869C98.76 103.732 82.8217 112.606 84.5762 135.763C85.2971 150.012 93.8429 193.353 104.585 222.742L105.49 223.023C101.011 206.187 98.4173 190.351 95.0619 174.814C94.7698 174.814 89.3079 145.453 89.2573 145.129C84.565 110.719 98.6083 108.223 98.3387 94.6976C104.183 97.7441 110.569 95.5485 115.528 91.3212C109.689 88.2941 110.935 87.4412 104.892 83.612C108.942 82.8821 113.886 84.5547 117.288 84.783C112.895 80.2044 105.493 72.0776 100.473 73.19C107.154 67.7546 116.383 79.574 124.871 76.0395C124.871 44.0651 169.291 37.7182 180.614 32.7902C194.228 27.3919 211.103 14.2961 219.821 13.371C215.252 18.1682 210.421 28.7912 210.421 37.9231C219.473 28.8713 220.364 28.9161 233.19 14.0736C233.19 25.811 228.983 27.9071 224.893 35.4835C236.903 28.2662 251.443 4.59233 274.494 1.0754C264.844 7.00266 258.7 17.3232 255.002 28.3404C259.406 22.3702 265.863 15.5959 273.034 14.4639C269.272 16.8099 260.187 25.7486 258.579 41.6509C266.714 31.67 280.273 23.4104 289.418 20.358C280.795 27.6729 277.494 40.5989 275.581 52.0143C278.739 46.9926 281.866 42.4569 286.759 39.2503C286.78 39.2308 286.815 39.2113 286.834 39.2113C288.761 37.847 288.257 38.2179 291.554 36.4984C290.302 38.4501 290.186 38.1964 288.203 42.4315C292.745 54.8774 307.906 54.9477 310.165 76.5274C313.642 73.313 314.735 72.7333 318.441 70.0283C315.553 74.7006 313.228 83.2373 311.794 88.218C317.233 83.3681 327.296 79.7672 331.529 78.1668C325.912 84.1194 320.457 92.016 319.808 100.338C320.957 99.5319 322.418 98.8937 324.283 97.4885C324.283 102.805 324.526 102.094 324.526 105.607C325.511 104.669 327.747 102.66 328.779 101.489C328.412 163.389 325.258 151.382 316.962 194.994C313.857 211.342 312.219 218.903 311.193 222.87L311.994 222.701C318.705 201.718 332.098 154.31 331.494 129.769C331.432 120.596 329.511 101.47 329.415 99.5182C329.376 99.5533 325.513 103.363 325.464 103.363C325.464 102.366 325.071 98.1228 325.071 95.81C324.41 96.3389 323.021 97.3284 321.158 98.4643C323.74 90.3395 327.67 85.2905 335.014 76.1195Z" fill="black"/>
<path opacity="0.2" d="M192.635 215.145C185.76 228.98 166.471 230.259 159.689 230.259L137.232 230.259C126.577 230.259 117.109 215.442 117.109 203.759L117.109 192.335C117.109 191.909 117.313 191.482 117.646 191.037L192.635 215.145ZM227.248 191.816C223.412 194.468 220.966 198.029 220.966 202.795L220.966 203.722C220.966 208.247 221.893 212.011 223.449 215.127C230.324 228.961 249.613 230.241 256.394 230.241L278.852 230.241C286.431 230.241 293.398 222.73 296.788 214.181L227.248 191.816Z" fill="white"/>
<path opacity="0.4" d="M192.635 215.146L117.628 191.02C119.462 188.572 125.781 186.013 129.023 185.623C133.063 185.141 141.308 184.344 151.147 184.344C167.564 184.344 195.099 186.736 195.099 202.814L195.099 203.741C195.099 208.266 194.173 212.031 192.635 215.146ZM298.956 203.741L298.956 192.318C298.956 191.891 298.753 191.465 298.419 191.02C296.585 188.572 290.266 186.013 287.023 185.623C282.984 185.141 274.738 184.344 264.899 184.344C253.356 184.344 236.346 185.53 227.229 191.817L296.77 214.182C298.16 210.733 298.956 207.116 298.956 203.741Z" fill="white"/>
<path d="M300.179 195.581L300.179 192.317C300.179 188.422 291.1 184.917 287.19 184.435C269.736 182.358 228.786 180.689 221.04 196.972C215.889 195.265 210.145 194.598 208.033 194.579C205.92 194.598 200.176 195.265 195.025 196.972C187.298 180.708 146.348 182.358 128.875 184.435C124.965 184.899 115.886 188.404 115.886 192.317L115.886 195.581L107.047 195.581L107.047 199.957L115.886 199.957L115.886 203.74C115.886 215.423 125.429 231.446 137.213 231.446L159.671 231.446C175.106 231.446 196.285 225.642 196.285 203.74L196.285 202.813C196.285 201.404 196.1 200.106 195.748 198.882C202.159 196.897 206.031 196.489 208.014 196.452C209.997 196.471 213.869 196.897 220.281 198.882C219.929 200.106 219.743 201.404 219.743 202.813L219.743 203.74C219.743 225.642 240.941 231.446 256.357 231.446L278.815 231.446C290.6 231.446 300.142 215.423 300.142 203.74L300.142 199.957L308.981 199.957L308.981 195.581L300.179 195.581ZM194.803 203.74C194.803 228.052 167.935 229.944 159.689 229.944L137.232 229.944C126.744 229.944 117.405 215.294 117.405 203.74L117.405 192.317C117.405 189.887 124.984 186.42 129.06 185.937C133.081 185.455 141.327 184.658 151.147 184.658C167.453 184.658 194.784 187.013 194.784 202.813L194.784 203.74L194.803 203.74ZM298.66 203.74C298.66 215.294 289.321 229.944 278.834 229.944L256.376 229.944C248.13 229.944 221.263 228.052 221.263 203.74L221.263 202.813C221.263 187.013 248.612 184.658 264.899 184.658C274.739 184.658 282.966 185.455 286.986 185.937C291.063 186.42 298.66 189.887 298.66 192.317L298.66 203.74Z" fill="#26120B"/>
<defs>
<linearGradient id="paint0_linear" x1="208.034" y1="373.423" x2="208.034" y2="291.436" gradientUnits="userSpaceOnUse">
<stop stop-color="#DCA588" stop-opacity="0.8"/>
<stop offset="0.7" stop-color="#BD764F"/>
</linearGradient>
<linearGradient id="paint1_linear" x1="207.985" y1="315.385" x2="207.985" y2="309.236" gradientUnits="userSpaceOnUse">
<stop offset="0.1" stop-color="#E3B298"/>
<stop offset="1" stop-color="#DCA588"/>
</linearGradient>
<radialGradient id="paint2_radial" cx="0" cy="0" r="1" gradientUnits="userSpaceOnUse" gradientTransform="translate(156.694 198.87) rotate(179.978) scale(25.2002 22.1874)">
<stop stop-color="white"/>
<stop offset="0.544" stop-color="#FDFEFE"/>
<stop offset="0.74" stop-color="#F6F8F9"/>
<stop offset="0.879" stop-color="#EAEFF2"/>
<stop offset="0.992" stop-color="#D9E3E8"/>
<stop offset="1" stop-color="#D8E2E7"/>
</radialGradient>
<radialGradient id="paint3_radial" cx="0" cy="0" r="1" gradientUnits="userSpaceOnUse" gradientTransform="translate(162.446 197.58) rotate(1.04947) scale(33.1629 23.3662)">
<stop stop-color="#DCA588"/>
<stop offset="0.7" stop-color="#DCA588" stop-opacity="0.3"/>
<stop offset="1" stop-color="#EBC0A9" stop-opacity="0"/>
</radialGradient>
<radialGradient id="paint4_radial" cx="0" cy="0" r="1" gradientUnits="userSpaceOnUse" gradientTransform="translate(153.117 234.505) rotate(-2.60636) scale(47.2275 41.1418)">
<stop offset="0.9" stop-opacity="0"/>
<stop offset="1" stop-opacity="0.2"/>
</radialGradient>
<radialGradient id="paint5_radial" cx="0" cy="0" r="1" gradientUnits="userSpaceOnUse" gradientTransform="translate(258.594 198.87) rotate(0.0216553) scale(25.2022 22.1892)">
<stop stop-color="white"/>
<stop offset="0.544" stop-color="#FDFEFE"/>
<stop offset="0.74" stop-color="#F6F8F9"/>
<stop offset="0.879" stop-color="#EAEFF2"/>
<stop offset="0.992" stop-color="#D9E3E8"/>
<stop offset="1" stop-color="#D8E2E7"/>
</radialGradient>
<radialGradient id="paint6_radial" cx="0" cy="0" r="1" gradientUnits="userSpaceOnUse" gradientTransform="translate(252.845 197.579) rotate(178.951) scale(33.1628 23.3662)">
<stop stop-color="#DCA588"/>
<stop offset="0.7" stop-color="#DCA588" stop-opacity="0.3"/>
<stop offset="1" stop-color="#EBC0A9" stop-opacity="0"/>
</radialGradient>
<radialGradient id="paint7_radial" cx="0" cy="0" r="1" gradientUnits="userSpaceOnUse" gradientTransform="translate(262.173 234.505) rotate(-177.394) scale(47.2275 41.1418)">
<stop offset="0.9" stop-opacity="0"/>
<stop offset="1" stop-opacity="0.2"/>
</radialGradient>
<radialGradient id="paint8_radial" cx="0" cy="0" r="1" gradientUnits="userSpaceOnUse" gradientTransform="translate(208.034 260.202) scale(79.969 80.035)">
<stop stop-color="#FADDCD" stop-opacity="0.5"/>
<stop offset="0.9" stop-color="#EBC0A9" stop-opacity="0"/>
</radialGradient>
<radialGradient id="paint9_radial" cx="0" cy="0" r="1" gradientUnits="userSpaceOnUse" gradientTransform="translate(208.034 143.078) scale(72.1672 72.2267)">
<stop stop-color="#FADDCD" stop-opacity="0.5"/>
<stop offset="0.9" stop-color="#EBC0A9" stop-opacity="0"/>
</radialGradient>
</defs>
</svg>
